<svg width="30" height="30" viewBox="0 0 30 30" fill="none" xmlns="http://www.w3.org/2000/svg">
<path d="M25.5399 16.13V23.6225C25.5187 24.4938 25.0962 24.975 24.2237 25.0475C23.2224 25.13 22.2162 25.1825 21.2112 25.2425C19.1862 25.3675 17.1608 25.49 15.1349 25.61C13.3412 25.7163 11.5474 25.81 9.75618 25.9313C8.96368 25.9825 8.33993 25.7325 7.90118 25.0525C7.77118 24.8513 7.60493 24.67 7.45743 24.4775C6.70743 23.51 5.96368 22.54 5.20993 21.5775C4.70335 20.9563 4.43438 20.1751 4.45118 19.3738C4.47618 15.1113 4.46118 10.8513 4.46368 6.59001C4.46368 6.42917 4.47618 6.26917 4.50118 6.11001C4.61618 5.48501 5.00368 5.09751 5.63618 5.03751C6.67118 4.94001 7.72243 4.87251 8.76618 4.79376L13.7537 4.42626C15.3512 4.31001 16.9487 4.19876 18.5462 4.07251C19.3469 4.00758 20.143 4.24383 20.7787 4.73501C22.1862 5.75626 23.6162 6.74376 25.0437 7.74001C25.2089 7.84601 25.3428 7.9943 25.4313 8.16948C25.5199 8.34466 25.56 8.54036 25.5474 8.73626C25.5337 11.2 25.5399 13.665 25.5399 16.13ZM24.0874 16.2263V9.84626C24.0874 9.23126 23.8712 9.01876 23.2749 9.05376L18.0874 9.34876L11.7249 9.72126C10.9774 9.76376 10.2299 9.80959 9.48243 9.85876C9.08618 9.88626 8.90618 10.0613 8.84743 10.45C8.83243 10.5625 8.82618 10.675 8.82868 10.7875V23.1125C8.82868 24.0713 9.08368 24.3113 10.0462 24.255C11.0087 24.1988 11.9699 24.1363 12.9424 24.08L23.2412 23.4888C23.7937 23.4575 24.0449 23.2138 24.0887 22.665C24.0962 22.5688 24.0887 22.4725 24.0887 22.37L24.0874 16.2263ZM22.5287 7.58126L22.5624 7.51751C22.4869 7.42479 22.4033 7.33903 22.3124 7.26126C21.6299 6.76251 20.9399 6.27376 20.2587 5.78251C19.8124 5.44126 19.2587 5.27001 18.6974 5.30126C17.5799 5.36876 16.4649 5.45751 15.3474 5.53876L8.16743 6.06001C7.65243 6.09751 7.13118 6.13751 6.62868 6.19751C6.57245 6.20875 6.51955 6.23274 6.47404 6.26763C6.42854 6.30252 6.39164 6.34738 6.36618 6.39876C6.34493 6.46001 6.44618 6.59751 6.52493 6.66126C7.08743 7.11501 7.65993 7.56126 8.22743 8.00876C8.53368 8.26376 8.92493 8.39626 9.32243 8.38001C9.51618 8.37126 9.70993 8.38001 9.90243 8.36251L15.1124 8.04251L22.0349 7.63501C22.1999 7.61584 22.3645 7.59792 22.5287 7.58126Z" fill="white"/>
<path d="M19.4088 18.36V12.535C19.0938 12.4975 18.7925 12.4537 18.4888 12.4312C18.3225 12.4187 18.2838 12.3437 18.3013 12.1975C18.3173 12.0388 18.3869 11.8904 18.4988 11.7768C18.6106 11.6631 18.7579 11.591 18.9163 11.5725C19.92 11.4975 20.9238 11.4462 21.9225 11.3862C22.0713 11.8825 21.9225 12.1262 21.4475 12.22C20.9238 12.3287 20.9238 12.3287 20.9238 12.86V21.4162C20.9238 21.615 20.8713 21.7362 20.6838 21.795C20.3534 21.919 20.0166 22.0254 19.675 22.1137C19.1263 22.2287 18.64 22.0762 18.3138 21.6025C17.8595 20.9479 17.4157 20.2862 16.9825 19.6175C15.9775 18.0625 14.985 16.5012 13.9863 14.9425C13.9663 14.91 13.9388 14.8787 13.8825 14.8012C13.87 14.9087 13.8588 14.97 13.8588 15.0337V20.8587C13.8588 21.03 13.9138 21.1 14.0788 21.1312C14.4488 21.2037 14.8175 21.2925 15.1788 21.3737C15.1724 21.5551 15.1005 21.728 14.9764 21.8604C14.8522 21.9928 14.6843 22.0757 14.5038 22.0937C14.2007 22.1347 13.8957 22.1597 13.59 22.1687C12.85 22.2137 12.11 22.2487 11.3713 22.3012C11.155 22.3162 11.1113 22.2262 11.1488 22.05C11.1603 21.9443 11.2043 21.8448 11.2749 21.7653C11.3454 21.6858 11.439 21.6302 11.5425 21.6062C11.775 21.55 12.005 21.4762 12.235 21.4112V13.0487L11.1988 12.9562C11.1642 12.8483 11.1548 12.734 11.1714 12.6219C11.188 12.5098 11.2301 12.403 11.2944 12.3098C11.3588 12.2166 11.4437 12.1394 11.5427 12.0841C11.6416 12.0289 11.7519 11.9971 11.865 11.9912C12.7713 11.9187 13.6838 11.8912 14.5875 11.7887C14.9738 11.7462 15.1538 11.8887 15.3475 12.1875C16.6263 14.1575 17.9225 16.12 19.2138 18.0837L19.4088 18.36Z" fill="white"/>
</svg>
