<svg width="24" height="24" viewBox="0 0 24 24" fill="none" xmlns="http://www.w3.org/2000/svg">
<rect x="0.5" y="0.5" width="23" height="23" rx="11.5" stroke="black"/>
<path d="M18.1343 4.00831C18.2419 3.97883 18.3571 4.03018 18.3921 4.12412C18.4459 4.24102 18.5398 4.68888 18.5586 4.85491C18.6177 5.40044 18.5787 6.15287 18.4005 7.07908C18.5838 8.06387 19.1173 10.8807 18.9767 13.349C18.7864 16.7069 18.0529 18.5737 16.7974 18.8982C16.124 19.0708 15.4005 19.0227 14.7634 18.7638C14.095 18.4874 13.5956 17.9729 13.3915 17.3525C13.3472 17.2215 13.3166 17.0892 13.2987 16.9573C12.8374 17.3656 12.388 17.6259 11.9809 17.6594C10.4838 17.7829 9.41364 16.9167 9.2559 15.454C9.25339 15.4322 9.25214 15.4092 9.24963 15.3873C9.22084 15.4354 9.17199 15.5239 9.12568 15.6113C8.75893 16.2951 7.89777 17.8965 6.69488 17.9959C6.03023 18.0505 4.51692 17.6431 4.34794 16.0766C4.08383 13.6276 5.22912 10.5002 5.98641 8.43127C6.3857 7.34111 6.70117 6.48139 6.66487 6.14603C6.66237 6.1231 6.66111 6.09906 6.65861 6.07503C6.6536 5.99967 6.64856 5.91555 6.60851 5.88606C6.56471 5.86422 6.51214 5.85768 6.46333 5.86641C5.6347 5.93523 4.36796 6.98499 4.48312 8.0544C4.49689 8.17674 4.53068 8.50001 4.6358 8.54811C4.81229 8.62896 4.83233 8.73492 4.79603 8.80046C4.76349 8.85943 4.67335 8.90314 4.55444 8.8573C4.41299 8.80485 4.07883 8.61035 4.00873 7.96371C3.95366 7.4514 4.16144 6.84407 4.56448 6.33722C4.99882 5.79105 5.59716 5.45023 6.20549 5.39998C6.82508 5.34865 7.80137 5.826 7.92905 7.01228C8.0755 8.3657 7.531 9.96823 6.95521 11.6647C6.36066 13.4157 5.74486 15.2268 5.91509 16.7965C5.96641 17.2662 6.12159 17.536 6.33187 17.5196C7.54353 17.4202 8.48358 15.7554 9.27091 14.177C9.42864 12.8432 9.95808 11.6985 10.1008 11.5575C10.3411 11.3184 11.2886 11.6362 11.6078 11.8285C11.8494 11.9749 11.8469 12.0928 11.8006 12.1671C11.6116 12.4774 10.6315 14.579 10.833 16.4415C10.8606 16.6971 10.9932 17.2858 11.6266 17.2345C12.1169 17.1942 12.7044 16.8341 13.3305 16.2188C13.4672 15.6146 13.8713 15.1068 14.4403 14.913C14.9516 14.2159 15.466 13.3845 15.955 12.45C16.7766 10.8809 17.3981 9.26139 17.7556 7.8222C17.7127 7.82679 17.6763 7.83581 17.6561 7.84903C17.4696 7.97246 17.188 8.21061 16.9915 8.33186C16.134 8.85948 15.2478 9.40454 15.4318 9.94853C15.6121 10.4805 16.3543 10.6782 16.4182 10.6804C16.447 10.6815 16.5358 10.6837 16.5696 10.7492C16.5884 10.7852 16.5809 10.8279 16.5508 10.8574C16.5283 10.8792 16.4982 10.8956 16.4657 10.9032C16.4269 10.913 16.3868 10.9141 16.348 10.9065L16.3318 10.9032C15.6484 10.7776 15.1602 10.4204 14.9925 9.92559C14.7258 9.13804 15.5595 8.6279 16.4432 8.08828C16.9551 7.77477 17.4846 7.4514 17.8877 7.04286C17.8919 7.03878 17.9094 7.0347 17.929 7.03048C18.0865 6.1913 18.1395 5.4369 18.0729 4.82104C18.0541 4.65064 18.0041 4.32295 17.9815 4.23554C17.9565 4.13614 18.0241 4.03781 18.1343 4.00831ZM18.1296 8.22716C17.7808 9.48853 17.2105 10.9799 16.348 12.6445C15.9783 13.3586 15.5397 14.1147 15.0696 14.8174C15.6307 14.8324 15.9752 15.1301 16.0301 15.2934C16.1202 15.5577 15.8962 15.9106 15.8048 16.0089C15.751 16.0701 15.6634 16.1007 15.5758 16.0897C15.5207 16.0832 15.4731 16.0504 15.4543 16.0056C15.4381 15.9619 15.4506 15.915 15.4869 15.8811C15.6321 15.7184 15.6759 15.5043 15.6045 15.3076C15.5807 15.2379 15.3366 15.0265 14.8603 15.1236C14.5527 15.5637 14.2344 15.9761 13.9152 16.3351C13.868 16.6385 13.8868 16.963 13.9885 17.264C14.3728 18.399 15.4155 18.6032 15.7548 18.5486C15.7623 18.5475 15.7685 18.5453 15.776 18.5442C17.4921 18.0833 17.9027 14.9777 17.9502 11.8918C17.9661 10.9243 18.3025 9.32499 18.1296 8.22716Z" fill="black"/>
</svg>
