<svg width="132" height="132" viewBox="0 0 132 132" fill="none" xmlns="http://www.w3.org/2000/svg">
<circle cx="66" cy="66" r="65.5" fill="url(#paint0_linear_188_32)" stroke="black"/>
<circle cx="66" cy="66" r="54.5" fill="#333333" stroke="black"/>
<circle cx="66" cy="66" r="52.5" fill="url(#paint1_linear_188_32)" stroke="black"/>
<path d="M94 44L95.578 61.834L103 64L110.468 61.835L112 44H94ZM107.3 58.722L103.007 59.926H103L98.703 58.722L98.406 55.555H100.514L100.664 57.081L102.999 57.72L105.339 57.08L105.584 54.03H98.314L98.127 52.024H105.767L105.941 50.018H97.924L97.748 48.012H108.254L107.3 58.722Z" fill="url(#paint2_linear_188_32)"/>
<path d="M82 85L83.578 102.824L91 105L98.467 102.825L100 85H82ZM96.049 91.048H88.075L88.247 93.064H95.944L95.318 99.629L91.072 101.01L86.791 99.555L86.503 96.623H88.527L88.687 98.034L91.087 98.849L93.433 98.086L93.73 95.081H86.416L85.854 89.031H96.266L96.049 91.048Z" fill="url(#paint3_linear_188_32)"/>
<path d="M60 18C59.2044 18 58.4413 18.3161 57.8787 18.8787C57.3161 19.4413 57 20.2044 57 21V33C57 33.7956 57.3161 34.5587 57.8787 35.1213C58.4413 35.6839 59.2044 36 60 36H72C72.7956 36 73.5587 35.6839 74.1213 35.1213C74.6839 34.5587 75 33.7956 75 33V21C75 20.2044 74.6839 19.4413 74.1213 18.8787C73.5587 18.3161 72.7956 18 72 18H60ZM67.334 31.055C68.054 31.635 68.7727 31.921 69.49 31.913C69.93 31.913 70.2673 31.8323 70.502 31.671C70.6113 31.6001 70.7002 31.5019 70.76 31.3862C70.8197 31.2705 70.8484 31.1412 70.843 31.011C70.8445 30.869 70.8149 30.7285 70.7561 30.5992C70.6974 30.47 70.611 30.3552 70.503 30.263C70.2683 30.0583 69.8243 29.853 69.171 29.647C68.3863 29.4203 67.7813 29.127 67.356 28.767C66.9387 28.407 66.726 27.9047 66.718 27.26C66.718 26.6513 66.982 26.1417 67.51 25.731C68.0233 25.3203 68.68 25.115 69.48 25.115C70.5947 25.115 71.489 25.3863 72.163 25.929L71.393 27.128C71.1157 26.9124 70.7977 26.7553 70.458 26.666C70.1528 26.5637 69.8338 26.5081 69.512 26.501C69.132 26.501 68.8277 26.5707 68.599 26.71C68.3723 26.85 68.259 27.0333 68.259 27.26C68.259 27.5093 68.398 27.722 68.676 27.898C68.956 28.0673 69.4327 28.2543 70.106 28.459C70.92 28.701 71.4993 29.0237 71.844 29.427C72.1887 29.8303 72.361 30.3437 72.361 30.967C72.361 31.605 72.1153 32.155 71.624 32.617C71.14 33.0717 70.436 33.31 69.512 33.332C68.302 33.332 67.29 32.969 66.476 32.243L67.334 31.055ZM61.804 31.693C62.0387 31.8397 62.321 31.913 62.651 31.913C62.9957 31.913 63.2817 31.814 63.509 31.616C63.7357 31.4107 63.8493 31.055 63.85 30.549V25.247H65.335V30.835C65.313 31.7003 65.0637 32.3237 64.587 32.705C64.3262 32.9255 64.0229 33.0902 63.696 33.189C63.3928 33.2813 63.0779 33.3295 62.761 33.332C62.211 33.332 61.7233 33.2367 61.298 33.046C60.8433 32.8413 60.462 32.4783 60.154 31.957L61.188 31.11C61.378 31.3667 61.5833 31.561 61.804 31.693Z" fill="url(#paint4_linear_188_32)"/>
<path d="M30.79 56.5H28.72V53.19H31.19C32.45 53.19 33.15 53.75 33.15 54.78C33.15 55.9 32.32 56.5 30.79 56.5ZM31.16 57.63H28.72V61.27H31.28C32.84 61.27 33.66 60.64 33.66 59.44C33.66 58.24 32.81 57.63 31.16 57.63ZM41 50.31V63.69C41 65.5 39.5 67 37.69 67H24.31C22.5 67 21 65.5 21 63.69V50.31C21 48.5 22.5 47 24.31 47H37.69C39.5 47 41 48.5 41 50.31ZM35 59.5C35 58.12 34.08 57.13 32.67 56.95V56.89C33.67 56.71 34.46 55.71 34.46 54.63C34.46 53.08 33.26 52.05 31.5 52.05H27.43V62.41H31.47C33.68 62.41 35 61.32 35 59.5Z" fill="url(#paint5_linear_188_32)"/>
<path fill-rule="evenodd" clip-rule="evenodd" d="M51.8767 90.3413V98.0565H50.3968V90.3413H47.4369C46.8481 90.3413 46.2835 90.1537 45.8672 89.8198C45.4508 89.4859 45.217 89.0331 45.217 88.5609V86.187H37.0773C36.6847 86.187 36.3083 86.312 36.0308 86.5346C35.7532 86.7572 35.5973 87.0591 35.5973 87.3739V98.0565H34.1174V87.3739C34.1174 86.7443 34.4292 86.1405 34.9843 85.6953C35.5394 85.2501 36.2922 85 37.0773 85H45.217L51.8767 90.3413ZM33.1643 103.149C33.0669 102.981 33.0111 102.8 33 102.616H34.1322C34.1529 102.708 34.1971 102.796 34.262 102.875C34.3269 102.953 34.4111 103.02 34.5095 103.071C34.6131 103.129 34.736 103.174 34.8781 103.207C35.0191 103.239 35.1765 103.255 35.3502 103.255C35.5929 103.255 35.7966 103.228 35.9614 103.172C36.1123 103.127 36.2434 103.047 36.3388 102.943C36.424 102.842 36.4679 102.721 36.4646 102.599C36.4684 102.525 36.4498 102.451 36.4104 102.383C36.3709 102.316 36.3119 102.257 36.2381 102.212C36.0891 102.117 35.8612 102.041 35.5544 101.983L34.6383 101.813C34.3562 101.766 34.0864 101.68 33.8406 101.559C33.6236 101.452 33.4447 101.302 33.3211 101.124C33.1972 100.932 33.1346 100.718 33.1391 100.502C33.1391 100.212 33.2328 99.9592 33.4203 99.7432C33.6078 99.5279 33.8682 99.361 34.2017 99.2423C34.5332 99.1236 34.916 99.0646 35.3502 99.0654C35.801 99.0654 36.1858 99.1256 36.5045 99.2458C36.8242 99.3669 37.0708 99.5291 37.2445 99.7325C37.4221 99.9343 37.5207 100.158 37.5405 100.404H36.4305C36.4052 100.292 36.344 100.186 36.2529 100.098C36.1563 100.002 36.0303 99.9283 35.8874 99.8832C35.7144 99.8259 35.5284 99.7984 35.3413 99.8025C35.0206 99.8025 34.7675 99.8627 34.5821 99.9829C34.4951 100.036 34.4252 100.105 34.3779 100.185C34.3305 100.264 34.3072 100.351 34.3098 100.439C34.3098 100.581 34.3803 100.7 34.5214 100.795C34.6994 100.899 34.9042 100.97 35.1208 101.003L36.0383 101.172C36.36 101.232 36.6392 101.315 36.876 101.423C37.1128 101.53 37.2978 101.672 37.431 101.848C37.5642 102.023 37.6308 102.245 37.6308 102.512C37.6308 102.805 37.538 103.065 37.3525 103.291C37.1566 103.524 36.879 103.705 36.5548 103.812C36.2085 103.937 35.7853 104 35.285 104C34.9091 104 34.5811 103.964 34.3009 103.893C34.0431 103.831 33.8028 103.729 33.5935 103.594C33.4118 103.472 33.2653 103.32 33.1643 103.149ZM39.4896 100.502C39.3798 100.742 39.328 100.997 39.3371 101.253V101.841C39.3371 102.133 39.3879 102.381 39.4896 102.585C39.5745 102.772 39.7283 102.934 39.9306 103.05C40.1417 103.157 40.388 103.212 40.638 103.207C40.8432 103.209 41.0463 103.173 41.2315 103.102C41.3967 103.035 41.5362 102.932 41.6355 102.807C41.7357 102.676 41.7951 102.529 41.8086 102.376H42.9408V102.466C42.9265 102.753 42.8105 103.03 42.6063 103.266C42.3976 103.499 42.1171 103.685 41.7924 103.805C41.4278 103.939 41.0302 104.006 40.6291 104C40.0963 104 39.6455 103.914 39.2765 103.742C38.9058 103.57 38.6106 103.311 38.4314 102.999C38.239 102.676 38.1433 102.29 38.1443 101.841V101.249C38.1443 100.799 38.2415 100.412 38.4358 100.087C38.6161 99.7745 38.9102 99.5125 39.2794 99.3361C39.6543 99.1604 40.1042 99.0726 40.6291 99.0726C40.9527 99.0726 41.2522 99.1109 41.5275 99.1877C41.8037 99.2613 42.0449 99.3689 42.2511 99.5105C42.4594 99.652 42.6283 99.827 42.7471 100.024C42.8659 100.221 42.9319 100.436 42.9408 100.655V100.741H41.8086C41.7948 100.582 41.734 100.427 41.631 100.29C41.5343 100.159 41.3945 100.052 41.227 99.9806C41.0465 99.9018 40.8435 99.8622 40.638 99.8654C40.388 99.8591 40.1419 99.9164 39.935 100.029C39.7322 100.148 39.5774 100.313 39.4896 100.502ZM43.3507 102.616C43.3592 102.803 43.4164 102.986 43.5186 103.154C43.6208 103.323 43.7658 103.472 43.9442 103.592C44.1346 103.721 44.3704 103.82 44.6516 103.892C44.9318 103.964 45.2599 104 45.6358 104C46.136 104 46.5593 103.937 46.9056 103.812C47.2548 103.687 47.5212 103.513 47.7048 103.29C47.8914 103.058 47.9877 102.787 47.9815 102.511C47.9815 102.245 47.9149 102.024 47.7817 101.846C47.6463 101.669 47.4549 101.522 47.2267 101.423C46.9648 101.306 46.6824 101.222 46.3891 101.173L45.4715 101.003C45.2548 100.97 45.05 100.898 44.8721 100.794C44.8049 100.752 44.7507 100.698 44.714 100.636C44.6773 100.575 44.6589 100.507 44.6605 100.439C44.6605 100.254 44.7513 100.102 44.9328 99.9829C45.1183 99.8627 45.3714 99.8025 45.692 99.8025C45.9022 99.8025 46.0842 99.8294 46.2381 99.8832C46.3806 99.9285 46.506 100.002 46.6022 100.098C46.6933 100.186 46.7544 100.292 46.7798 100.404H47.8897C47.8706 100.163 47.7682 99.9301 47.5938 99.7325C47.4073 99.519 47.1513 99.3507 46.8538 99.2458C46.4906 99.1175 46.0962 99.0558 45.6994 99.0654C45.2673 99.0654 44.8845 99.1248 44.551 99.2435C44.2195 99.3614 43.9595 99.5279 43.7711 99.7432C43.5836 99.9592 43.4899 100.212 43.4899 100.502C43.4899 100.741 43.5505 100.948 43.6719 101.124C43.7933 101.299 43.9664 101.444 44.1914 101.559C44.4163 101.672 44.6827 101.757 44.9905 101.812L45.9037 101.983C46.2105 102.041 46.4389 102.117 46.5889 102.212C46.6626 102.257 46.7217 102.316 46.7611 102.383C46.8005 102.451 46.8191 102.525 46.8153 102.599C46.8186 102.721 46.7747 102.842 46.6895 102.943C46.5942 103.047 46.463 103.127 46.3121 103.172C46.1169 103.231 45.9094 103.259 45.7009 103.255C45.5263 103.255 45.3684 103.24 45.2273 103.208C45.0956 103.18 44.9709 103.134 44.8588 103.071C44.7604 103.02 44.6761 102.953 44.6112 102.875C44.5463 102.796 44.5022 102.708 44.4814 102.616H43.3507ZM48.5335 103.149C48.4367 102.981 48.3814 102.8 48.3707 102.616H49.5014C49.5221 102.708 49.5663 102.796 49.6312 102.875C49.6961 102.953 49.7804 103.02 49.8788 103.071C49.9824 103.129 50.1052 103.174 50.2473 103.207C50.3884 103.239 50.5458 103.255 50.7194 103.255C50.9621 103.255 51.1659 103.228 51.3306 103.172C51.4815 103.127 51.6126 103.047 51.708 102.943C51.7932 102.842 51.8371 102.721 51.8338 102.599C51.8378 102.525 51.8194 102.451 51.7803 102.383C51.7411 102.316 51.6823 102.257 51.6089 102.212C51.4579 102.117 51.2295 102.041 50.9236 101.983L50.009 101.813C49.7264 101.766 49.4561 101.68 49.2099 101.559C48.9929 101.452 48.8139 101.302 48.6904 101.124C48.5664 100.932 48.5039 100.718 48.5084 100.502C48.5084 100.212 48.6021 99.9592 48.7896 99.7432C48.977 99.5279 49.2375 99.361 49.571 99.2423C49.9025 99.1236 50.2853 99.0646 50.7194 99.0654C51.1713 99.0654 51.5561 99.1256 51.8738 99.2458C52.1934 99.3669 52.4401 99.5291 52.6137 99.7325C52.7913 99.9343 52.89 100.158 52.9097 100.404H51.7998C51.7744 100.292 51.7133 100.186 51.6222 100.098C51.5255 100.002 51.3996 99.9283 51.2566 99.8832C51.0837 99.8259 50.8976 99.7984 50.7105 99.8025C50.3899 99.8025 50.1373 99.8627 49.9528 99.9829C49.8656 100.036 49.7953 100.105 49.7478 100.185C49.7002 100.264 49.6766 100.351 49.679 100.439C49.679 100.581 49.7495 100.7 49.8906 100.795C50.0687 100.899 50.2734 100.97 50.49 101.003L51.4076 101.172C51.7292 101.232 52.0084 101.315 52.2452 101.423C52.482 101.53 52.667 101.672 52.8002 101.848C52.9334 102.023 53 102.245 53 102.512C53 102.805 52.9077 103.065 52.7232 103.291C52.5269 103.524 52.2488 103.706 51.9241 103.812C51.5778 103.937 51.1545 104 50.6543 104C50.2784 104 49.9503 103.964 49.6701 103.893C49.4123 103.831 49.1721 103.729 48.9627 103.594C48.781 103.472 48.6345 103.32 48.5335 103.149Z" fill="url(#paint6_linear_188_32)"/>
<circle cx="66" cy="67" r="18.5" fill="black" stroke="#333333"/>
<circle cx="66" cy="67" r="14.5" fill="black" stroke="#333333"/>
<defs>
<linearGradient id="paint0_linear_188_32" x1="66" y1="0" x2="66" y2="132" gradientUnits="userSpaceOnUse">
<stop stop-color="#111111"/>
<stop offset="1" stop-color="#373535"/>
</linearGradient>
<linearGradient id="paint1_linear_188_32" x1="66" y1="13" x2="66" y2="119" gradientUnits="userSpaceOnUse">
<stop stop-color="#111111"/>
<stop offset="1" stop-color="#373535"/>
</linearGradient>
<linearGradient id="paint2_linear_188_32" x1="103" y1="44" x2="103" y2="64" gradientUnits="userSpaceOnUse">
<stop stop-color="white"/>
<stop offset="1" stop-color="#757575"/>
</linearGradient>
<linearGradient id="paint3_linear_188_32" x1="91" y1="85" x2="91" y2="105" gradientUnits="userSpaceOnUse">
<stop stop-color="white"/>
<stop offset="1" stop-color="#757575"/>
</linearGradient>
<linearGradient id="paint4_linear_188_32" x1="66" y1="18" x2="66" y2="36" gradientUnits="userSpaceOnUse">
<stop stop-color="white"/>
<stop offset="1" stop-color="#757575"/>
</linearGradient>
<linearGradient id="paint5_linear_188_32" x1="31" y1="47" x2="31" y2="67" gradientUnits="userSpaceOnUse">
<stop stop-color="white"/>
<stop offset="1" stop-color="#757575"/>
</linearGradient>
<linearGradient id="paint6_linear_188_32" x1="43" y1="85" x2="43" y2="104" gradientUnits="userSpaceOnUse">
<stop stop-color="white"/>
<stop offset="1" stop-color="#757575"/>
</linearGradient>
</defs>
</svg>
